<svg id="visual" viewBox="0 0 900 600" width="900" height="600" xmlns="http://www.w3.org/2000/svg" xmlns:xlink="http://www.w3.org/1999/xlink" version="1.1"><g stroke-width="1" stroke-linejoin="bevel"><path d="M430 314L467 390L475 295Z" fill="#00101c" stroke="#00101c"></path><path d="M430 314L435 408L467 390Z" fill="#202548" stroke="#202548"></path><path d="M558 495L587 420L467 390Z" fill="#c6355e" stroke="#c6355e"></path><path d="M467 390L587 420L475 295Z" fill="#f05a36" stroke="#f05a36"></path><path d="M610 290L504 205L475 295Z" fill="#f05a36" stroke="#f05a36"></path><path d="M475 295L371 214L430 314Z" fill="#00101c" stroke="#00101c"></path><path d="M587 420L610 290L475 295Z" fill="#84306b" stroke="#84306b"></path><path d="M504 205L371 214L475 295Z" fill="#3e2c5a" stroke="#3e2c5a"></path><path d="M430 314L327 430L435 408Z" fill="#3e2c5a" stroke="#3e2c5a"></path><path d="M297 321L327 430L430 314Z" fill="#f05a36" stroke="#f05a36"></path><path d="M501 517L558 495L467 390Z" fill="#602f66" stroke="#602f66"></path><path d="M371 214L297 321L430 314Z" fill="#84306b" stroke="#84306b"></path><path d="M501 517L467 390L435 408Z" fill="#c6355e" stroke="#c6355e"></path><path d="M405 533L501 517L435 408Z" fill="#00101c" stroke="#00101c"></path><path d="M610 290L559 164L504 205Z" fill="#f7770f" stroke="#f7770f"></path><path d="M504 205L478 122L371 214Z" fill="#c6355e" stroke="#c6355e"></path><path d="M327 430L405 533L435 408Z" fill="#f05a36" stroke="#f05a36"></path><path d="M559 164L478 122L504 205Z" fill="#df434d" stroke="#df434d"></path><path d="M725 378L691 299L587 420Z" fill="#a73068" stroke="#a73068"></path><path d="M587 420L691 299L610 290Z" fill="#f05a36" stroke="#f05a36"></path><path d="M610 290L724 203L559 164Z" fill="#0b1c32" stroke="#0b1c32"></path><path d="M335 70L303 183L371 214Z" fill="#3e2c5a" stroke="#3e2c5a"></path><path d="M371 214L303 183L297 321Z" fill="#202548" stroke="#202548"></path><path d="M297 321L236 392L327 430Z" fill="#c6355e" stroke="#c6355e"></path><path d="M327 430L258 503L405 533Z" fill="#202548" stroke="#202548"></path><path d="M214 325L236 392L297 321Z" fill="#84306b" stroke="#84306b"></path><path d="M229 229L214 325L297 321Z" fill="#c6355e" stroke="#c6355e"></path><path d="M405 533L489 600L501 517Z" fill="#0b1c32" stroke="#0b1c32"></path><path d="M501 517L603 600L558 495Z" fill="#00101c" stroke="#00101c"></path><path d="M763 398L725 378L742 476Z" fill="#a73068" stroke="#a73068"></path><path d="M725 378L587 420L742 476Z" fill="#f7770f" stroke="#f7770f"></path><path d="M526 0L438 81L478 122Z" fill="#f7770f" stroke="#f7770f"></path><path d="M478 122L438 81L371 214Z" fill="#202548" stroke="#202548"></path><path d="M159 481L258 503L236 392Z" fill="#f7770f" stroke="#f7770f"></path><path d="M236 392L258 503L327 430Z" fill="#84306b" stroke="#84306b"></path><path d="M405 533L389 600L489 600Z" fill="#3e2c5a" stroke="#3e2c5a"></path><path d="M303 183L229 229L297 321Z" fill="#df434d" stroke="#df434d"></path><path d="M135 201L229 229L166 87Z" fill="#00101c" stroke="#00101c"></path><path d="M265 600L389 600L405 533Z" fill="#202548" stroke="#202548"></path><path d="M682 110L599 89L559 164Z" fill="#f05a36" stroke="#f05a36"></path><path d="M559 164L599 89L478 122Z" fill="#f05a36" stroke="#f05a36"></path><path d="M489 600L603 600L501 517Z" fill="#f7770f" stroke="#f7770f"></path><path d="M691 299L724 203L610 290Z" fill="#602f66" stroke="#602f66"></path><path d="M828 260L724 203L691 299Z" fill="#f05a36" stroke="#f05a36"></path><path d="M742 476L587 420L558 495Z" fill="#602f66" stroke="#602f66"></path><path d="M725 378L828 260L691 299Z" fill="#0b1c32" stroke="#0b1c32"></path><path d="M364 0L335 70L438 81Z" fill="#202548" stroke="#202548"></path><path d="M438 81L335 70L371 214Z" fill="#df434d" stroke="#df434d"></path><path d="M669 600L742 476L558 495Z" fill="#84306b" stroke="#84306b"></path><path d="M724 203L682 110L559 164Z" fill="#3e2c5a" stroke="#3e2c5a"></path><path d="M603 600L669 600L558 495Z" fill="#f05a36" stroke="#f05a36"></path><path d="M258 503L265 600L405 533Z" fill="#f7770f" stroke="#f7770f"></path><path d="M213 600L265 600L258 503Z" fill="#202548" stroke="#202548"></path><path d="M101 487L159 481L64 387Z" fill="#a73068" stroke="#a73068"></path><path d="M64 387L159 481L236 392Z" fill="#a73068" stroke="#a73068"></path><path d="M605 0L526 0L599 89Z" fill="#0b1c32" stroke="#0b1c32"></path><path d="M599 89L526 0L478 122Z" fill="#a73068" stroke="#a73068"></path><path d="M526 0L364 0L438 81Z" fill="#84306b" stroke="#84306b"></path><path d="M166 87L229 229L303 183Z" fill="#0b1c32" stroke="#0b1c32"></path><path d="M669 600L773 533L742 476Z" fill="#f05a36" stroke="#f05a36"></path><path d="M900 485L900 405L763 398Z" fill="#3e2c5a" stroke="#3e2c5a"></path><path d="M166 87L303 183L335 70Z" fill="#c6355e" stroke="#c6355e"></path><path d="M229 229L95 270L214 325Z" fill="#a73068" stroke="#a73068"></path><path d="M159 481L213 600L258 503Z" fill="#a73068" stroke="#a73068"></path><path d="M664 0L605 0L599 89Z" fill="#df434d" stroke="#df434d"></path><path d="M900 332L828 260L763 398Z" fill="#00101c" stroke="#00101c"></path><path d="M763 398L828 260L725 378Z" fill="#0b1c32" stroke="#0b1c32"></path><path d="M724 203L818 120L682 110Z" fill="#f7770f" stroke="#f7770f"></path><path d="M682 110L664 0L599 89Z" fill="#202548" stroke="#202548"></path><path d="M135 201L95 270L229 229Z" fill="#3e2c5a" stroke="#3e2c5a"></path><path d="M364 0L275 0L335 70Z" fill="#84306b" stroke="#84306b"></path><path d="M820 0L664 0L682 110Z" fill="#84306b" stroke="#84306b"></path><path d="M64 387L236 392L214 325Z" fill="#df434d" stroke="#df434d"></path><path d="M159 481L133 600L213 600Z" fill="#602f66" stroke="#602f66"></path><path d="M275 0L166 87L335 70Z" fill="#c6355e" stroke="#c6355e"></path><path d="M135 201L0 183L95 270Z" fill="#202548" stroke="#202548"></path><path d="M828 260L842 187L724 203Z" fill="#602f66" stroke="#602f66"></path><path d="M95 270L64 387L214 325Z" fill="#f7770f" stroke="#f7770f"></path><path d="M166 87L122 126L135 201Z" fill="#f7770f" stroke="#f7770f"></path><path d="M95 270L0 320L64 387Z" fill="#00101c" stroke="#00101c"></path><path d="M842 187L818 120L724 203Z" fill="#c6355e" stroke="#c6355e"></path><path d="M0 600L133 600L101 487Z" fill="#3e2c5a" stroke="#3e2c5a"></path><path d="M101 487L133 600L159 481Z" fill="#f7770f" stroke="#f7770f"></path><path d="M900 405L900 332L763 398Z" fill="#3e2c5a" stroke="#3e2c5a"></path><path d="M828 260L900 211L842 187Z" fill="#c6355e" stroke="#c6355e"></path><path d="M842 187L900 102L818 120Z" fill="#df434d" stroke="#df434d"></path><path d="M669 600L817 600L773 533Z" fill="#df434d" stroke="#df434d"></path><path d="M900 485L763 398L742 476Z" fill="#202548" stroke="#202548"></path><path d="M900 485L742 476L773 533Z" fill="#c6355e" stroke="#c6355e"></path><path d="M275 0L177 0L166 87Z" fill="#00101c" stroke="#00101c"></path><path d="M166 87L66 0L122 126Z" fill="#202548" stroke="#202548"></path><path d="M900 332L900 211L828 260Z" fill="#f05a36" stroke="#f05a36"></path><path d="M817 600L900 485L773 533Z" fill="#c6355e" stroke="#c6355e"></path><path d="M0 183L135 201L122 126Z" fill="#84306b" stroke="#84306b"></path><path d="M0 183L0 320L95 270Z" fill="#f7770f" stroke="#f7770f"></path><path d="M64 387L0 473L101 487Z" fill="#0b1c32" stroke="#0b1c32"></path><path d="M0 320L0 409L64 387Z" fill="#c6355e" stroke="#c6355e"></path><path d="M0 409L0 473L64 387Z" fill="#84306b" stroke="#84306b"></path><path d="M900 102L820 0L818 120Z" fill="#84306b" stroke="#84306b"></path><path d="M818 120L820 0L682 110Z" fill="#f05a36" stroke="#f05a36"></path><path d="M900 211L900 102L842 187Z" fill="#202548" stroke="#202548"></path><path d="M0 71L0 183L122 126Z" fill="#00101c" stroke="#00101c"></path><path d="M817 600L900 600L900 485Z" fill="#3e2c5a" stroke="#3e2c5a"></path><path d="M177 0L66 0L166 87Z" fill="#602f66" stroke="#602f66"></path><path d="M0 473L0 600L101 487Z" fill="#202548" stroke="#202548"></path><path d="M66 0L0 71L122 126Z" fill="#84306b" stroke="#84306b"></path><path d="M900 102L900 0L820 0Z" fill="#202548" stroke="#202548"></path><path d="M66 0L0 0L0 71Z" fill="#a73068" stroke="#a73068"></path></g></svg>